<svg width="142" height="142" viewBox="0 0 142 142" fill="none" xmlns="http://www.w3.org/2000/svg">
<path d="M47.2704 85.2028V48.0752H83.2829C87.4082 48.0752 92.3139 49.3017 93.3173 56.8833C94.1201 62.9485 87.8541 66.5461 84.6208 67.5867H72.9139C72.0963 66.7319 69.7029 64.2419 66.6703 61.12C63.6376 57.9982 62.0618 57.5151 61.653 57.6637H56.3014V67.5867C56.3014 70.9761 57.2676 72.4181 57.7507 72.7154C68.2684 83.456 89.6604 105.272 91.0875 106.61C92.5146 107.948 95.1756 109.323 96.3277 109.843H110.599V104.937C102.906 97.8016 87.8765 83.5303 89.3036 83.5303C91.0874 83.5303 111.937 77.3982 110.599 56.2143C109.529 39.2672 94.7668 32.9492 87.5197 31.9086H30.7692C30.6949 47.0346 30.5909 78.8699 30.7692 85.2028C30.9922 93.1188 35.006 98.6935 40.3577 103.934C44.6391 108.126 51.8788 109.62 54.9635 109.843H71.2416V93.6763H56.3014C51.2172 93.6763 48.1623 88.0273 47.2704 85.2028Z" fill="white"/>
</svg>
