<svg width="67" height="67" viewBox="0 0 67 67" fill="none" xmlns="http://www.w3.org/2000/svg">
<path d="M22.8413 39.8666V22.4518H39.7331C41.668 22.4518 43.9691 23.0271 44.4398 26.5832C44.8163 29.4282 41.8772 31.1156 40.3606 31.6037H34.8695C34.486 31.2028 33.3633 30.0348 31.9409 28.5705C30.5184 27.1062 29.7793 26.8796 29.5875 26.9493H27.0773V31.6037C27.0773 33.1935 27.5305 33.8699 27.7571 34.0094C32.6905 39.0473 42.7245 49.28 43.3938 49.9076C44.0632 50.5351 45.3114 51.1801 45.8518 51.4242H52.5458V49.1231C48.9373 45.7761 41.8877 39.0821 42.5571 39.0821C43.3938 39.0821 53.1733 36.2058 52.5458 26.2695C52.0437 18.3204 45.1197 15.3569 41.7204 14.8688H15.1014C15.0665 21.9637 15.0177 36.8961 15.1014 39.8666C15.206 43.5797 17.0886 46.1945 19.5989 48.6524C21.6071 50.6188 25.0029 51.3196 26.4498 51.4242H34.0851V43.8411H27.0773C24.6926 43.8411 23.2596 41.1914 22.8413 39.8666Z" fill="white"/>
</svg>
